<svg width="24" height="24" viewBox="0 0 24 24" fill="none" xmlns="http://www.w3.org/2000/svg">
<path d="M19.125 14.25C17.6308 14.2514 16.1678 14.6773 14.9064 15.4782C13.6449 16.279 12.637 17.4218 12 18.7734C11.363 17.4218 10.3551 16.279 9.09365 15.4782C7.83221 14.6773 6.36918 14.2514 4.875 14.25H0.75V15C0.75 19.3423 4.28269 22.875 8.625 22.875H15.375C19.7173 22.875 23.25 19.3423 23.25 15V14.25H19.125ZM8.625 21.375C5.36339 21.375 2.66606 18.9132 2.29387 15.75H4.875C8.13661 15.75 10.8339 18.2118 11.2061 21.375H8.625ZM15.375 21.375H12.7939C13.1661 18.2118 15.8634 15.75 19.125 15.75H21.7061C21.3339 18.9132 18.6366 21.375 15.375 21.375Z" fill="#FFFFFF"/>
<path d="M7.9325 12.3175C8.07435 13.1609 8.47672 13.9388 9.08314 14.5419L9.30284 14.7615H9.61348C10.4688 14.7639 11.3033 14.4984 12 14.0023C12.6967 14.4985 13.5312 14.764 14.3865 14.7617H14.6971L14.9168 14.542C15.5232 13.9389 15.9256 13.1611 16.0675 12.3177C16.9109 12.1758 17.6887 11.7735 18.2918 11.167L18.5115 10.9473V10.6367C18.5139 9.78137 18.2484 8.94675 17.7523 8.25001C18.2484 7.55334 18.514 6.7188 18.5117 5.86351V5.55287L18.292 5.33317C17.6889 4.72675 16.9111 4.32438 16.0677 4.18253C15.9258 3.33911 15.5234 2.56127 14.917 1.95817L14.6973 1.73851H14.3867C13.5313 1.73611 12.6967 2.00159 12 2.4977C11.3033 2.00154 10.4688 1.73599 9.61348 1.73833H9.30284L9.08314 1.95798C8.47672 2.56108 8.07435 3.33892 7.9325 4.18234C7.08908 4.32419 6.31124 4.72656 5.70814 5.33298L5.48848 5.55269V5.86333C5.48608 6.71865 5.75156 7.55326 6.24767 8.25001C5.75151 8.94668 5.48596 9.78123 5.4883 10.6365V10.9472L5.70795 11.1669C6.3111 11.7733 7.08901 12.1757 7.9325 12.3175ZM7.75737 7.71972C7.34142 7.30626 7.07716 6.76454 7.00737 6.18222C7.46846 5.81965 8.03842 5.62332 8.62498 5.62501H9.37498V4.87501C9.37328 4.28852 9.56956 3.71861 9.93205 3.25755C10.5144 3.32733 11.0561 3.59159 11.4695 4.00755L12 4.53751L12.5303 4.00722C12.9437 3.59126 13.4855 3.327 14.0678 3.25722C14.4304 3.71836 14.6267 4.28839 14.625 4.87501V5.62501H15.375C15.9615 5.62332 16.5314 5.81959 16.9925 6.18208C16.9227 6.7644 16.6584 7.30612 16.2425 7.71958L15.7125 8.25001L16.2428 8.78036C16.6588 9.19381 16.923 9.73554 16.9928 10.3179C16.5317 10.6805 15.9616 10.8768 15.375 10.875H14.625V11.625C14.6267 12.2115 14.4304 12.7814 14.0679 13.2425C13.4856 13.1727 12.9439 12.9084 12.5304 12.4925L12 11.9625L11.4696 12.4927C11.0562 12.9086 10.5145 13.1729 9.93214 13.2427C9.56958 12.7816 9.37327 12.2116 9.37498 11.625V10.875H8.62498C8.03849 10.8767 7.46858 10.6804 7.00752 10.318C7.0773 9.73563 7.34156 9.19391 7.75752 8.78045L8.28748 8.25001L7.75737 7.71972Z" fill="#FFFFFF"/>
</svg>
