<svg width="29" height="29" viewBox="0 0 29 29" fill="none" xmlns="http://www.w3.org/2000/svg">
<path d="M20.6172 1.00894C20.5927 1.0086 20.5677 1.00974 20.5428 1.01064C19.7953 1.0397 18.884 1.62859 18.3162 3.23911C17.6566 5.10978 16.7094 8.3695 15.9248 11.1653H18.6985C19.914 8.67004 21.1989 5.89131 21.8296 4.07275C22.1434 3.16842 22.1111 2.46019 21.9235 1.96826C21.7358 1.47628 21.4022 1.18549 21.0048 1.06734C20.9022 1.03704 20.7965 1.01861 20.6897 1.0124C20.6657 1.01098 20.6417 1.00923 20.6172 1.009L20.6172 1.00894ZM7.49605 12.2238C6.57507 12.2238 5.87646 12.9431 5.87646 13.746C5.87646 14.5376 6.54839 15.1854 7.47305 15.2009L8.39165 15.2168L7.91728 16.0045C6.89662 17.6962 6.23936 20.6265 6.23936 22.4456C6.23936 24.6157 7.05703 25.8855 8.43588 26.722C8.87111 26.986 9.36774 27.2012 9.91568 27.3716C9.72916 26.2711 9.59096 25.1667 9.52452 24.0582C8.7678 21.4528 8.92979 18.8471 8.89615 16.2418H13.6345C13.0946 18.3835 12.7358 20.527 12.6203 22.6688C12.6639 24.3994 12.884 26.138 13.2097 27.8849C13.4943 27.8969 13.7846 27.9026 14.0787 27.9026C16.3388 27.9026 18.3443 27.5586 19.7233 26.722C21.1022 25.8856 21.9198 24.6158 21.9198 22.4457C21.9198 20.6308 21.2598 17.6961 20.2418 16.0028L19.7692 15.2152L20.6862 15.201C21.6105 15.1861 22.2827 14.5378 22.2827 13.7461C22.2827 12.9433 21.5823 12.2238 20.6614 12.2238H13.1619C12.7875 13.209 12.9756 14.1961 13.4451 15.1833H9.21826C8.13133 14.1542 8.09961 13.1789 8.90141 12.2238L7.49605 12.2238ZM11.3228 18.6117C10.9593 20.3688 10.7037 22.1259 10.5759 23.8829C10.6451 25.1324 10.8125 26.3866 11.0414 27.6478C11.3865 27.7129 11.7468 27.764 12.1175 27.8035C11.7255 25.6275 11.4946 23.4393 11.567 21.2402C11.4042 20.3642 11.3444 19.4876 11.3227 18.6118L11.3228 18.6117Z" fill="#FFFFFF"/>
</svg>
