<svg width="28" height="28" viewBox="0 0 28 28" xmlns="http://www.w3.org/2000/svg">
<path d="M19.125 12.0625C17.6308 12.0639 16.1678 12.4898 14.9064 13.2907C13.6449 14.0915 12.637 15.2343 12 16.5859C11.363 15.2343 10.3551 14.0915 9.09365 13.2907C7.83221 12.4898 6.36918 12.0639 4.875 12.0625H0.75V12.8125C0.75 17.1548 4.28269 20.6875 8.625 20.6875H15.375C19.7173 20.6875 23.25 17.1548 23.25 12.8125V12.0625H19.125ZM8.625 19.1875C5.36339 19.1875 2.66606 16.7257 2.29387 13.5625H4.875C8.13661 13.5625 10.8339 16.0243 11.2061 19.1875H8.625ZM15.375 19.1875H12.7939C13.1661 16.0243 15.8634 13.5625 19.125 13.5625H21.7061C21.3339 16.7257 18.6366 19.1875 15.375 19.1875Z" fill="#F2839A"/>
<path d="M7.9325 10.13C8.07435 10.9734 8.47672 11.7512 9.08314 12.3543L9.30284 12.574H9.61348C10.4688 12.5764 11.3033 12.3109 12 11.8148C12.6967 12.3109 13.5312 12.5765 14.3865 12.5742H14.6971L14.9168 12.3545C15.5232 11.7514 15.9256 10.9736 16.0675 10.1302C16.9109 9.98831 17.6887 9.58594 18.2918 8.97952L18.5115 8.75981V8.44917C18.5139 7.59384 18.2484 6.75922 17.7523 6.06248C18.2484 5.36581 18.514 4.53127 18.5117 3.67598V3.36534L18.292 3.14564C17.6889 2.53922 16.9111 2.13685 16.0677 1.995C15.9258 1.15158 15.5234 0.373742 14.917 -0.22936L14.6973 -0.449016H14.3867C13.5313 -0.451419 12.6967 -0.185936 12 0.310172C11.3033 -0.185994 10.4688 -0.451544 9.61348 -0.449203H9.30284L9.08314 -0.229547C8.47672 0.373554 8.07435 1.15139 7.9325 1.99481C7.08908 2.13666 6.31124 2.53903 5.70814 3.14545L5.48848 3.36516V3.6758C5.48608 4.53112 5.75156 5.36573 6.24767 6.06248C5.75151 6.75915 5.48596 7.5937 5.4883 8.44898V8.75962L5.70795 8.97933C6.3111 9.58578 7.08901 9.98816 7.9325 10.13ZM7.75737 5.53219C7.34142 5.11873 7.07716 4.577 7.00737 3.99469C7.46846 3.63212 8.03842 3.43579 8.62498 3.43748H9.37498V2.68748C9.37328 2.10099 9.56956 1.53108 9.93205 1.07002C10.5144 1.1398 11.0561 1.40406 11.4695 1.82002L12 2.34998L12.5303 1.81969C12.9437 1.40373 13.4855 1.13947 14.0678 1.06969C14.4304 1.53083 14.6267 2.10086 14.625 2.68748V3.43748H15.375C15.9615 3.43578 16.5314 3.63206 16.9925 3.99455C16.9227 4.57686 16.6584 5.11859 16.2425 5.53205L15.7125 6.06248L16.2428 6.59283C16.6588 7.00628 16.923 7.54801 16.9928 8.13033C16.5317 8.49292 15.9616 8.68924 15.375 8.68748H14.625V9.43748C14.6267 10.024 14.4304 10.5939 14.0679 11.055C13.4856 10.9852 12.9439 10.7209 12.5304 10.305L12 9.77498L11.4696 10.3051C11.0562 10.7211 10.5145 10.9854 9.93214 11.0551C9.56958 10.594 9.37327 10.0241 9.37498 9.43748V8.68748H8.62498C8.03849 8.68918 7.46858 8.49291 7.00752 8.13042C7.0773 7.5481 7.34156 7.00638 7.75752 6.59292L8.28748 6.06248L7.75737 5.53219Z" fill="#F2839A"/>
</svg>
